<?xml version="1.0" encoding="utf-8"?>
<!-- Generator: Adobe Illustrator 25.4.1, SVG Export Plug-In . SVG Version: 6.00 Build 0)  -->
<svg version="1.1" id="Warstwa_1" xmlns="http://www.w3.org/2000/svg" xmlns:xlink="http://www.w3.org/1999/xlink" x="0px" y="0px"
	 viewBox="0 0 484.2 147" style="enable-background:new 0 0 484.2 147;" xml:space="preserve">
<style type="text/css">
	.st0{fill:#FFD200;}
</style>
<g>
	<g>
		<path class="st0" d="M92.3,5.8c-17.7,6.1-34.8,13.8-51,23.1c-7.7,4.4-15.4,9-22.3,14.6C12.9,48.3,7.2,54.5,4.8,62.2
			c-5.8,18,11.9,31.7,24.9,40.5c14.2,9.7,30.2,16.6,46.5,21.8c36,11.4,74.4,16.2,112.1,18.1c39,1.9,78.2,0.1,117.1-3.2
			c35.2-3,70.7-7.3,104.5-18.1c16.9-5.4,33.3-12.4,48.5-21.5c6.9-4.1,13.7-9,18-15.8c4.5-7.2,4.8-15.7,1.2-23.4
			c-3.4-7.3-10-12.8-16.5-17.1c-7.6-5-15.8-9-24.2-12.5c-16.6-7-34-11.4-51.6-14.8C347,8.8,308,5.5,269.1,6.2
			C230.1,6.8,191,11.4,153,20c-9.1,2.1-18.2,4.5-27.1,7.5c-8.4,2.9-17.2,6-24.8,10.7c-7.3,4.5-12.5,11.4-12.6,20.3
			c-0.1,8.3,3.9,16.4,9.8,22.1c6,5.8,13.4,9.6,20.8,13.2c2.4,1.2,5.4,0.7,6.8-1.8c1.3-2.2,0.6-5.7-1.8-6.8
			c-6.8-3.3-14-6.7-19.3-12.2c-4.4-4.4-7.6-11.2-5.9-17.5c1.8-6.8,9.3-10,15.1-12.6c8-3.6,16.4-6.4,24.8-8.9
			c17.5-5,35.5-8.5,53.4-11.3c18.2-2.8,36.5-4.7,54.8-5.7c36.8-2,73.9-0.6,110.4,4.6c33.5,4.8,69,11.4,97.9,30.1
			c5.4,3.5,11.2,8.1,13.7,14.3c2.5,6.2,0,12.2-4.5,16.7c-5.3,5.4-12.1,9.1-18.7,12.6c-7.2,3.9-14.5,7.3-22.1,10.3
			c-31,12.3-64.3,18.1-97.3,21.7c-36.2,3.9-72.7,6.2-109.1,6c-36.9-0.2-73.8-3.2-109.9-11c-15.9-3.4-31.7-7.7-46.7-14.1
			c-14.5-6.2-28.9-14.4-40.1-25.6c-4.8-4.8-8.5-10.7-6.4-17.5c1.9-6.3,7.4-11.4,12.5-15.2c6.7-5.1,14.1-9.4,21.4-13.5
			c7.6-4.3,15.5-8.3,23.5-11.9c7.6-3.4,15.4-6.4,23.3-9.2c2.6-0.9,4.2-3.4,3.5-6.2C97.8,6.8,94.9,4.9,92.3,5.8L92.3,5.8z"/>
	</g>
</g>
</svg>
