<?xml version="1.0" encoding="utf-8"?>
<!-- Generator: Adobe Illustrator 25.4.1, SVG Export Plug-In . SVG Version: 6.00 Build 0)  -->
<svg version="1.1" id="Warstwa_1" xmlns="http://www.w3.org/2000/svg" xmlns:xlink="http://www.w3.org/1999/xlink" x="0px" y="0px"
	 viewBox="0 0 101.9 61.9" style="enable-background:new 0 0 101.9 61.9;" xml:space="preserve">
<style type="text/css">
	.st0{fill:#FFD200;}
</style>
<path class="st0" d="M1.6,34.9L27,60.3c2.1,2.1,5.6,2.1,7.8,0c2.1-2.1,2.1-5.6,0-7.8L19.2,36.9h76.7c3.3,0,6-2.7,6-6s-2.7-6-6-6
	H19.2L34.8,9.4c2.1-2.1,2.1-5.6,0-7.8c-2.1-2.1-5.6-2.1-7.8,0L1.6,27C0.5,28.1,0,29.5,0,30.9C0,32.4,0.5,33.8,1.6,34.9z"/>
</svg>
