<?xml version="1.0" encoding="utf-8"?>
<!-- Generator: Adobe Illustrator 25.4.1, SVG Export Plug-In . SVG Version: 6.00 Build 0)  -->
<svg version="1.1" id="Warstwa_1" xmlns="http://www.w3.org/2000/svg" xmlns:xlink="http://www.w3.org/1999/xlink" x="0px" y="0px"
	 viewBox="0 0 484.2 117.7" style="enable-background:new 0 0 484.2 117.7;" xml:space="preserve">
<style type="text/css">
	.st0{fill:#FFD200;}
</style>
<g>
	<g>
		<path class="st0" d="M333.4,23.8c-47.2-2.1-94.4-4.2-141.7-2.5c-46.9,1.7-93.9,7.2-139.1,20.1C41.1,44.8,28.9,48,18.2,53.6
			C8.8,58.5,0.9,66,0,77c-0.2,1.8,1.1,3.4,2.5,4.3c22.6,15.4,49.8,21.6,76.6,25.4c29.7,4.2,59.7,7,89.7,8.9
			c30.4,1.9,60.9,2.6,91.3,1.6c30.5-1,60.9-3.6,91-8.2c15-2.3,29.9-5.1,44.7-8.4c13.5-3,27-6.3,40.1-10.8c12.1-4.2,24-9.4,34.2-17.2
			c2.7-2,5.3-4.2,7.8-6.5c2.3-2.1,6.4-5.3,6.4-8.7c0-2.8-1.8-6.2-3.2-8.5c-1.3-2.4-3-4.6-4.9-6.6c-7.7-8.3-18.8-12.9-29.4-16.1
			c-13.6-4.1-27.7-7-41.6-9.8C375.3,10.4,345,6.1,314.6,3.3c-30.3-2.7-60.7-3.7-91.1-3.2c-30.6,0.6-61.1,2.7-91.4,6.5
			c-7.5,0.9-14.9,1.9-22.4,3c-2.7,0.4-4.1,3.8-3.5,6.2c0.8,2.9,3.5,3.9,6.2,3.5c51.1-7.5,102.9-10.5,154.5-8.9
			c51.6,1.7,103,8.1,153.4,19.5c11.5,2.6,23.5,4.9,34.2,9.7c8.8,4,17.2,9.8,20,19.2c0.4-1.6,0.9-3.2,1.3-4.9
			c-18.8,21.6-48.4,28.9-75.1,35.3c-32.1,7.6-64.9,12.6-97.8,15.4c-33.3,2.8-66.8,3.5-100.2,2.5c-33.5-1-66.9-3.7-100.2-7.5
			c-29-3.3-59.4-6.9-85.4-21.2c-3.3-1.8-6.4-3.7-9.5-5.8c0.8,1.4,1.7,2.9,2.5,4.3c0.6-7.1,7.7-12,14.1-15.2
			c9.1-4.5,19.4-7.2,29.1-10.1c21.9-6.4,44.2-11,66.7-14.2C165,31,210.6,30.1,256,31c25.8,0.5,51.6,1.6,77.4,2.8
			C339.9,34.1,339.9,24.1,333.4,23.8L333.4,23.8z"/>
	</g>
</g>
</svg>
