<?xml version="1.0" encoding="utf-8"?>
<!-- Generator: Adobe Illustrator 25.4.1, SVG Export Plug-In . SVG Version: 6.00 Build 0)  -->
<svg version="1.1" id="Warstwa_1" xmlns="http://www.w3.org/2000/svg" xmlns:xlink="http://www.w3.org/1999/xlink" x="0px" y="0px"
	 viewBox="0 0 164.6 67" style="enable-background:new 0 0 164.6 67;" xml:space="preserve">
<style type="text/css">
	.st0{fill:#020202;stroke:#000000;stroke-linecap:round;stroke-linejoin:round;stroke-miterlimit:10;}
</style>
<path d="M17.1,57.2c0.1,0,0.2,0,0.3,0c0.1,0,0.2,0.1,0.3,0.2l1.6,1.7c-0.7,0.9-1.6,1.6-2.6,2c-1.2,0.5-2.4,0.7-3.7,0.7
	c-1.2,0-2.4-0.2-3.5-0.7c-1-0.4-1.9-1-2.6-1.8s-1.3-1.7-1.6-2.8c-0.4-1.1-0.6-2.3-0.6-3.5s0.2-2.4,0.6-3.5c0.4-1,1-2,1.7-2.8
	C7.8,46,8.7,45.4,9.7,45c1.1-0.4,2.3-0.7,3.4-0.7c1.2,0,2.3,0.2,3.4,0.6c0.5,0.2,0.9,0.4,1.4,0.7c0.4,0.3,0.8,0.6,1.1,0.9l-1.3,1.8
	c-0.1,0.1-0.2,0.2-0.3,0.3c-0.1,0.1-0.3,0.1-0.5,0.1c-0.1,0-0.3,0-0.4-0.1l-0.4-0.2l-0.5-0.2c-0.2-0.1-0.4-0.2-0.6-0.3
	c-0.3-0.1-0.5-0.2-0.8-0.2c-0.4-0.1-0.7-0.1-1.1-0.1c-0.6,0-1.2,0.1-1.8,0.4c-0.5,0.2-1,0.6-1.4,1c-0.4,0.5-0.7,1.1-0.9,1.7
	c-0.2,0.7-0.3,1.5-0.3,2.3s0.1,1.6,0.4,2.3c0.2,0.6,0.6,1.2,1,1.7s0.9,0.8,1.4,1.1c0.6,0.2,1.1,0.4,1.8,0.4c0.3,0,0.7,0,1,0
	s0.6-0.1,0.8-0.2c0.3-0.1,0.5-0.2,0.7-0.3c0.2-0.2,0.5-0.3,0.7-0.5c0.1-0.1,0.2-0.1,0.3-0.2C16.9,57.2,17,57.2,17.1,57.2z"/>
<path d="M25.4,49.3c0.9,0,1.7,0.1,2.5,0.4c0.7,0.3,1.4,0.7,2,1.2c0.6,0.6,1,1.3,1.3,2c0.3,0.8,0.5,1.7,0.5,2.6
	c0,0.9-0.1,1.8-0.5,2.6c-0.3,0.7-0.7,1.4-1.3,2c-0.6,0.5-1.3,0.9-2,1.1c-0.8,0.3-1.7,0.4-2.5,0.4s-1.7-0.1-2.5-0.4
	c-0.7-0.3-1.4-0.7-2-1.2c-0.6-0.6-1-1.2-1.3-2s-0.5-1.7-0.5-2.6c0-0.9,0.1-1.8,0.5-2.6c0.3-0.8,0.7-1.4,1.3-2c0.6-0.6,1.3-1,2-1.2
	C23.7,49.3,24.5,49.2,25.4,49.3z M25.4,59.1c0.7,0.1,1.4-0.3,1.8-0.9c0.5-0.8,0.7-1.7,0.6-2.7c0.1-0.9-0.1-1.9-0.6-2.7
	c-0.4-0.6-1.1-0.9-1.8-0.9c-0.7-0.1-1.4,0.3-1.9,0.9c-0.5,0.8-0.7,1.7-0.6,2.7c-0.1,0.9,0.1,1.9,0.6,2.7
	C23.9,58.8,24.6,59.1,25.4,59.1L25.4,59.1z"/>
<path d="M32.9,61.6V49.5h2.2c0.4,0,0.8,0.2,0.9,0.6l0.2,0.7c0.2-0.2,0.4-0.4,0.6-0.6c0.2-0.2,0.5-0.3,0.7-0.5
	c0.3-0.1,0.5-0.2,0.8-0.3s0.7-0.1,1-0.1c0.7,0,1.3,0.2,1.8,0.6c0.5,0.4,0.9,0.9,1.1,1.5c0.2-0.4,0.4-0.7,0.7-1s0.6-0.5,1-0.6
	c0.3-0.2,0.7-0.3,1.1-0.4c0.4-0.1,0.7-0.1,1.1-0.1c0.6,0,1.3,0.1,1.8,0.3s1,0.5,1.3,0.9c0.4,0.4,0.7,0.9,0.8,1.5
	c0.2,0.6,0.3,1.3,0.3,1.9v7.7h-3.6v-7.7c0-1.2-0.5-1.9-1.6-1.9c-0.5,0-0.9,0.2-1.2,0.5c-0.3,0.4-0.5,0.9-0.5,1.4v7.7h-3.7v-7.7
	c0.1-0.5-0.1-1-0.4-1.5c-0.3-0.3-0.8-0.5-1.2-0.4c-0.3,0-0.6,0.1-0.9,0.2c-0.3,0.2-0.6,0.4-0.8,0.6v8.8L32.9,61.6z"/>
<path d="M55.7,50.9c0.5-0.5,1-0.9,1.6-1.2c0.7-0.3,1.4-0.5,2.2-0.5c0.6,0,1.2,0.1,1.8,0.4c0.6,0.3,1,0.7,1.4,1.2
	c0.4,0.6,0.7,1.2,0.9,1.9c0.2,0.9,0.3,1.7,0.3,2.6c0,0.9-0.1,1.7-0.4,2.5c-0.2,0.7-0.6,1.4-1.1,2c-0.4,0.6-1,1-1.6,1.3
	c-0.7,0.3-1.4,0.5-2.1,0.5c-0.5,0-1.1-0.1-1.6-0.3c-0.4-0.2-0.8-0.4-1.2-0.7v4.6h-3.6v-16h2.2c0.4,0,0.8,0.2,0.9,0.6L55.7,50.9z
	 M55.9,58.3c0.2,0.3,0.6,0.5,0.9,0.6c0.3,0.1,0.7,0.2,1,0.2s0.6-0.1,0.9-0.2c0.3-0.2,0.5-0.4,0.7-0.6c0.2-0.3,0.4-0.7,0.5-1.1
	c0.1-0.6,0.2-1.1,0.2-1.7c0-0.5,0-1.1-0.1-1.6c-0.1-0.4-0.2-0.7-0.4-1c-0.1-0.3-0.3-0.5-0.6-0.6C58.7,52,58.5,52,58.2,52
	c-0.5,0-0.9,0.1-1.4,0.3c-0.4,0.2-0.7,0.5-1,0.9L55.9,58.3z"/>
<path d="M65,51.1c0.7-0.6,1.5-1.1,2.4-1.4c0.9-0.3,1.9-0.5,2.9-0.5c0.7,0,1.4,0.1,2,0.4c1.1,0.4,2,1.4,2.4,2.5
	c0.2,0.6,0.3,1.3,0.3,1.9v7.6h-1.7c-0.3,0-0.5,0-0.8-0.1c-0.2-0.1-0.4-0.3-0.4-0.6l-0.3-0.7c-0.3,0.3-0.6,0.5-0.9,0.7
	s-0.6,0.4-0.9,0.5s-0.7,0.2-1,0.3c-0.4,0.1-0.8,0.1-1.1,0.1c-0.5,0-1-0.1-1.5-0.2c-0.4-0.1-0.8-0.3-1.2-0.6c-0.3-0.3-0.6-0.6-0.7-1
	c-0.2-0.5-0.3-0.9-0.2-1.4c0-0.5,0.1-0.9,0.3-1.3c0.3-0.5,0.7-1,1.1-1.3c0.7-0.4,1.4-0.7,2.2-0.9c1.1-0.3,2.3-0.4,3.4-0.4V54
	c0-0.5-0.1-1.1-0.4-1.5c-0.3-0.3-0.7-0.5-1.2-0.5c-0.3,0-0.7,0-1,0.1s-0.5,0.2-0.7,0.3s-0.4,0.2-0.6,0.3s-0.5,0.1-0.7,0.1
	s-0.4-0.1-0.6-0.2c-0.2-0.1-0.3-0.3-0.4-0.5L65,51.1z M71.5,56.6c-0.6,0-1.2,0.1-1.8,0.2c-0.4,0.1-0.8,0.2-1.1,0.3
	c-0.2,0.1-0.4,0.3-0.6,0.5c-0.1,0.2-0.2,0.4-0.2,0.6c0,0.3,0.1,0.7,0.3,0.9c0.3,0.2,0.6,0.3,1,0.2c0.4,0,0.8-0.1,1.2-0.2
	c0.4-0.2,0.8-0.5,1.1-0.8L71.5,56.6z"/>
<path d="M80.2,50.8c0.2-0.2,0.5-0.4,0.7-0.6c0.2-0.2,0.5-0.3,0.8-0.5c0.3-0.1,0.6-0.2,0.9-0.3c0.4-0.1,0.7-0.1,1.1-0.1
	c0.6,0,1.2,0.1,1.8,0.3c0.5,0.2,0.9,0.6,1.3,1s0.6,0.9,0.8,1.5c0.2,0.6,0.3,1.2,0.3,1.8v7.7h-3.6v-7.7c0-0.5-0.1-1-0.4-1.4
	c-0.3-0.3-0.7-0.5-1.2-0.5c-0.4,0-0.8,0.1-1.1,0.2c-0.4,0.2-0.7,0.4-1,0.7v8.6h-3.7v-12h2.2c0.4,0,0.8,0.2,0.9,0.6L80.2,50.8z"/>
<path d="M100.9,49.5l-6.4,15.2c-0.1,0.2-0.2,0.4-0.4,0.5c-0.2,0.1-0.5,0.2-0.7,0.2h-2.7l2.3-4.9l-4.8-11.1h3.2c0.2,0,0.5,0,0.7,0.2
	c0.1,0.1,0.3,0.3,0.3,0.5l2,5.2c0.2,0.5,0.3,1,0.5,1.5L95,56c0.1-0.2,0.2-0.5,0.3-0.7l1.8-5.2c0.1-0.2,0.2-0.3,0.4-0.5
	c0.2-0.1,0.4-0.2,0.6-0.2h2.8V49.5z"/>
<path d="M109.2,50.8c0.2-0.2,0.5-0.4,0.7-0.6c0.2-0.2,0.5-0.3,0.8-0.5c0.3-0.1,0.6-0.2,0.9-0.3c0.4-0.1,0.7-0.1,1.1-0.1
	c0.6,0,1.2,0.1,1.8,0.3c0.5,0.2,0.9,0.6,1.3,1s0.6,0.9,0.8,1.5c0.2,0.6,0.3,1.2,0.3,1.8v7.7h-3.6v-7.7c0-0.5-0.1-1-0.4-1.4
	c-0.3-0.3-0.7-0.5-1.2-0.5c-0.4,0-0.8,0.1-1.1,0.2c-0.4,0.2-0.7,0.4-1,0.7v8.6H106v-12h2.2c0.4,0,0.8,0.2,0.9,0.6L109.2,50.8z"/>
<path d="M118.4,51.1c0.7-0.6,1.6-1.1,2.5-1.4c0.9-0.3,1.9-0.5,2.9-0.5c0.7,0,1.4,0.1,2,0.4c0.6,0.2,1.1,0.6,1.5,1s0.7,1,0.9,1.5
	c0.2,0.6,0.3,1.3,0.3,1.9v7.6h-1.7c-0.3,0-0.5,0-0.8-0.1c-0.2-0.1-0.4-0.3-0.4-0.6l-0.3-0.7c-0.3,0.3-0.6,0.5-0.9,0.7
	s-0.6,0.4-0.9,0.5s-0.6,0.2-0.9,0.3c-0.4,0.1-0.8,0.1-1.1,0.1c-0.5,0-1-0.1-1.5-0.2c-0.4-0.1-0.8-0.3-1.2-0.6
	c-0.3-0.3-0.6-0.6-0.7-1c-0.2-0.5-0.3-0.9-0.3-1.4s0.1-0.9,0.3-1.3c0.3-0.5,0.7-0.9,1.1-1.2c0.7-0.4,1.4-0.7,2.2-0.9
	c1.1-0.3,2.3-0.4,3.4-0.4V54c0.1-0.5-0.1-1.1-0.4-1.5c-0.3-0.3-0.8-0.5-1.2-0.5c-0.3,0-0.7,0-1,0.1s-0.5,0.2-0.7,0.3
	s-0.4,0.2-0.6,0.3s-0.5,0.1-0.7,0.1s-0.4-0.1-0.6-0.2c-0.2-0.1-0.3-0.3-0.4-0.5L118.4,51.1z M124.9,56.6c-0.6,0-1.2,0.1-1.8,0.2
	c-0.4,0.1-0.8,0.2-1.1,0.3c-0.2,0.1-0.4,0.3-0.6,0.5c-0.1,0.2-0.2,0.4-0.2,0.6c0,0.3,0.1,0.7,0.3,0.9c0.3,0.2,0.6,0.3,1,0.2
	c0.4,0,0.8-0.1,1.2-0.2c0.4-0.2,0.8-0.5,1.1-0.8L124.9,56.6z"/>
<path d="M130.3,61.6V49.5h2.2c0.4,0,0.8,0.2,0.9,0.6l0.2,0.7c0.2-0.2,0.4-0.4,0.6-0.6c0.2-0.2,0.5-0.3,0.7-0.5
	c0.3-0.1,0.5-0.2,0.8-0.3s0.7-0.1,1-0.1c0.7,0,1.3,0.2,1.8,0.6c0.5,0.4,0.9,0.9,1.1,1.5c0.2-0.4,0.4-0.7,0.7-1s0.6-0.5,0.9-0.6
	c0.3-0.2,0.7-0.3,1.1-0.4c0.4-0.1,0.7-0.1,1.1-0.1c0.6,0,1.3,0.1,1.9,0.3c0.5,0.2,1,0.5,1.4,0.9s0.7,0.9,0.8,1.5
	c0.2,0.6,0.3,1.3,0.3,1.9v7.7h-3.6v-7.7c0-1.2-0.5-1.9-1.6-1.9c-0.5,0-0.9,0.2-1.2,0.5c-0.3,0.4-0.5,0.9-0.5,1.4v7.7h-3.6v-7.7
	c0.1-0.5-0.1-1-0.4-1.5c-0.3-0.3-0.8-0.5-1.2-0.4c-0.3,0-0.6,0.1-0.9,0.2c-0.3,0.2-0.6,0.4-0.8,0.6v8.8L130.3,61.6z"/>
<path d="M152.7,56.2c0,0.8,0.4,1.6,0.9,2.2c0.5,0.5,1.2,0.7,1.9,0.7c0.4,0,0.7,0,1.1-0.2c0.3-0.1,0.5-0.2,0.8-0.3l0.6-0.3
	c0.2-0.1,0.4-0.2,0.6-0.2c0.3,0,0.5,0.1,0.6,0.3l1.1,1.3c-0.3,0.4-0.8,0.7-1.2,1s-0.9,0.5-1.3,0.6c-0.4,0.2-0.9,0.3-1.4,0.3
	c-0.4,0.1-0.9,0.1-1.3,0.1c-0.8,0-1.6-0.1-2.4-0.4c-0.7-0.3-1.4-0.7-2-1.2c-0.6-0.6-1-1.3-1.3-2c-0.3-0.9-0.5-1.9-0.5-2.8
	c0-0.8,0.1-1.6,0.4-2.3c0.3-0.7,0.7-1.3,1.2-1.9c0.5-0.6,1.2-1,1.9-1.3c1.5-0.6,3.2-0.6,4.7-0.1c0.6,0.2,1.2,0.6,1.7,1.1
	s0.9,1.1,1.1,1.8c0.3,0.7,0.4,1.5,0.4,2.3c0,0.2,0,0.4,0,0.7c0,0.1-0.1,0.3-0.1,0.4c-0.1,0.1-0.1,0.2-0.2,0.2
	c-0.1,0-0.3,0.1-0.4,0.1L152.7,56.2z M157.2,54.1c0-0.3,0-0.6-0.1-0.8c-0.1-0.3-0.2-0.5-0.4-0.7s-0.4-0.4-0.7-0.5s-0.7-0.2-1-0.2
	c-0.6,0-1.2,0.2-1.6,0.6c-0.4,0.5-0.7,1.1-0.8,1.7L157.2,54.1L157.2,54.1z"/>
<g>
	<path class="st0" d="M55.2,36.5c0,0-0.1-0.2-0.2-0.6c-0.4-1.1-1.3-3.8-1.9-6.7c-0.5-2.4-0.8-5-0.5-7c0.2-1,0.5-1.9,0.9-2.5
		c0.5-0.6,1.1-1.1,2-1.3c1-0.2,2.2-0.1,3.9,0.4c5.3,1.6,10,6.3,14.3,10.5c2.2,2.1,4.2,4,6.2,5.4c2,1.3,4,2.1,6,1.7
		c2-0.4,3.8-2,5.5-4.9c2.1-3.6,2.8-6.5,2.3-8.6c-0.3-1.3-1-2.4-2.1-2.9c-1.1-0.6-2.5-0.7-4-0.4c-2.4,0.5-5.3,2.1-8.3,5
		s-6,7-8.8,12.7c-0.8,1.7-1.6,2.9-2.2,3.8c-0.7,0.8-1.2,1.2-1.6,1.3c-0.2,0-0.3,0-0.5,0c-0.2-0.1-0.5-0.4-0.7-0.8
		c-0.2-0.4-0.4-1.1-0.6-1.8c-0.5-2.1-0.6-5.4-0.3-9c0.4-5.4,1.7-11.8,3.8-17c1.1-2.6,2.3-4.9,3.8-6.6s3.1-2.9,5-3.3
		c1.4-0.3,2.8-0.2,4.5,0.5c1.9,0.8,3.2,1.5,4,2.1c0.9,0.6,1.2,1.2,1.3,1.7c0.1,0.3,0,0.6-0.2,1c-0.3,0.6-1,1.3-1.9,2
		c-1.3,1-3,2.1-4.3,3.4c-0.7,0.6-1.2,1.3-1.6,2c-0.4,0.7-0.5,1.6-0.3,2.4c0.2,1.1,1,2.3,2.4,3.5s3.5,2.5,6.5,4
		c8.6,4.2,15,5.1,19.4,4.2c2.4-0.5,4.2-1.6,5.3-3.1c1.1-1.4,1.4-3.2,1-4.9c-0.5-2.4-2.3-4.7-5.4-6.2c-2.1-1.1-3.8-1.3-5.2-1
		c-1.4,0.3-2.5,1.2-3.2,2.3c-1.1,1.7-1.6,3.8-1.8,5.6c-0.2,1.8-0.2,3.1-0.2,3.1h0.9v-0.1c0-0.5,0-2.8,0.6-5.1
		c0.3-1.1,0.7-2.3,1.4-3.2c0.6-0.9,1.4-1.5,2.5-1.8c1.2-0.2,2.7,0,4.7,1c2.8,1.4,4.5,3.6,4.9,5.6c0.3,1.5,0,3-0.9,4.2
		c-0.9,1.2-2.5,2.2-4.7,2.7c-4,0.9-10.3,0-18.8-4.1c-2.9-1.4-5-2.7-6.3-3.9c-1.3-1.2-2-2.2-2.1-3c-0.2-1,0.1-1.9,0.9-2.8
		c1.1-1.4,3.1-2.6,4.7-3.8c0.8-0.6,1.5-1.2,2.1-1.9c0.5-0.7,0.8-1.4,0.7-2.2c-0.2-0.8-0.7-1.5-1.6-2.2s-2.3-1.4-4.2-2.2
		c-1.8-0.7-3.4-0.9-5-0.5c-2.8,0.6-5.1,2.7-6.9,5.6c-2.8,4.3-4.6,10.5-5.6,16.4s-1.1,11.6-0.4,15c0.2,1.1,0.5,1.9,1,2.5
		c0.2,0.3,0.5,0.5,0.8,0.7s0.7,0.2,1,0.1c0.7-0.2,1.4-0.7,2.1-1.6c0.7-0.9,1.5-2.2,2.3-3.9c2.4-6,5.4-10.1,8.2-12.9
		c2.9-2.8,5.6-4.3,7.9-4.8c1.4-0.3,2.6-0.2,3.4,0.3c0.9,0.5,1.4,1.2,1.7,2.4c0.4,1.8-0.2,4.6-2.2,8c-1.7,2.9-3.4,4.2-5,4.5
		c-1.7,0.4-3.4-0.3-5.3-1.6c-2.9-1.9-6-5.3-9.4-8.5s-7.1-6.2-11.3-7.5c-1.7-0.5-3.1-0.6-4.3-0.4c-1.1,0.2-2,0.8-2.5,1.6
		c-0.9,1.2-1.2,2.8-1.2,4.6c0,1.8,0.3,3.7,0.6,5.6c0.8,4,2.2,7.4,2.2,7.4L55.2,36.5L55.2,36.5z"/>
</g>
</svg>
