<?xml version="1.0" encoding="utf-8"?>
<!-- Generator: Adobe Illustrator 25.4.1, SVG Export Plug-In . SVG Version: 6.00 Build 0)  -->
<svg version="1.1" id="Warstwa_1" xmlns="http://www.w3.org/2000/svg" xmlns:xlink="http://www.w3.org/1999/xlink" x="0px" y="0px"
	 viewBox="0 0 137.2 42.4" style="enable-background:new 0 0 137.2 42.4;" xml:space="preserve">
<style type="text/css">
	.st0{fill:#212121;}
	.st1{fill:#FFBF01;}
	.st2{fill:#B3F1FF;}
	.st3{opacity:0.2;}
	.st4{fill:#FFFFFF;stroke:#000000;stroke-width:11;stroke-miterlimit:10;}
	.st5{fill:#FFFFFF;}
	.st6{fill:#F7931E;}
</style>
<g>
	<path class="st0" d="M53.6,15.3v3.4h-7.8v4.8h6.5v3.4h-6.5v7.4h-4.4v-19H53.6z"/>
	<path class="st0" d="M60,17.1c0,0.3-0.1,0.6-0.2,0.9c-0.1,0.3-0.3,0.5-0.5,0.7c-0.2,0.2-0.5,0.4-0.8,0.5c-0.3,0.1-0.6,0.2-1,0.2
		c-0.3,0-0.6-0.1-0.9-0.2c-0.3-0.1-0.5-0.3-0.8-0.5c-0.2-0.2-0.4-0.5-0.5-0.7c-0.1-0.3-0.2-0.6-0.2-0.9c0-0.3,0.1-0.6,0.2-0.9
		c0.1-0.3,0.3-0.5,0.5-0.8c0.2-0.2,0.5-0.4,0.8-0.5c0.3-0.1,0.6-0.2,0.9-0.2c0.3,0,0.7,0.1,1,0.2c0.3,0.1,0.6,0.3,0.8,0.5
		c0.2,0.2,0.4,0.5,0.5,0.8C59.9,16.4,60,16.7,60,17.1z M59.5,20.8v13.5h-4V20.8H59.5z"/>
	<path class="st0" d="M62.3,34.3V20.8h2.4c0.2,0,0.4,0,0.5,0.1c0.1,0,0.2,0.1,0.3,0.2c0.1,0.1,0.2,0.2,0.2,0.3
		c0,0.1,0.1,0.3,0.1,0.4l0.2,1.3c0.5-0.8,1.1-1.4,1.7-1.8c0.6-0.4,1.3-0.7,2-0.7c0.6,0,1.1,0.1,1.5,0.4l-0.5,3
		c0,0.2-0.1,0.3-0.2,0.4c-0.1,0.1-0.2,0.1-0.4,0.1c-0.1,0-0.3,0-0.5-0.1c-0.2,0-0.5-0.1-0.8-0.1c-1.1,0-1.9,0.6-2.5,1.7v8.3H62.3z"
		/>
	<path class="st0" d="M72.5,34.3V20.8h2.5c0.3,0,0.5,0.1,0.6,0.2c0.2,0.1,0.3,0.3,0.4,0.5l0.2,0.7c0.2-0.2,0.5-0.5,0.7-0.6
		c0.2-0.2,0.5-0.4,0.8-0.5c0.3-0.1,0.6-0.3,0.9-0.3c0.3-0.1,0.7-0.1,1.1-0.1c0.8,0,1.5,0.2,2,0.6c0.5,0.4,0.9,1,1.2,1.7
		c0.2-0.4,0.5-0.8,0.8-1.1c0.3-0.3,0.7-0.5,1.1-0.7c0.4-0.2,0.8-0.3,1.2-0.4c0.4-0.1,0.8-0.1,1.3-0.1c0.8,0,1.5,0.1,2.1,0.3
		c0.6,0.2,1.1,0.6,1.5,1c0.4,0.4,0.7,1,0.9,1.6c0.2,0.6,0.3,1.4,0.3,2.2v8.6h-4v-8.6c0-1.4-0.6-2.1-1.8-2.1c-0.5,0-1,0.2-1.4,0.5
		c-0.4,0.4-0.5,0.9-0.5,1.6v8.6h-4v-8.6c0-0.8-0.2-1.3-0.5-1.6c-0.3-0.3-0.8-0.5-1.3-0.5c-0.4,0-0.7,0.1-1,0.2
		c-0.3,0.2-0.6,0.4-0.9,0.7v9.8H72.5z"/>
	<path class="st0" d="M94.5,34.3V14.8h4v7.4c0.5-0.5,1.1-0.9,1.7-1.2c0.6-0.3,1.4-0.5,2.3-0.5c0.7,0,1.4,0.2,2,0.5
		c0.6,0.3,1.1,0.8,1.6,1.3c0.4,0.6,0.8,1.3,1,2.2c0.2,0.9,0.4,1.8,0.4,2.9c0,1-0.1,2-0.4,2.8c-0.3,0.9-0.7,1.6-1.2,2.2
		c-0.5,0.6-1.1,1.1-1.8,1.5c-0.7,0.4-1.5,0.5-2.4,0.5c-0.4,0-0.8,0-1.1-0.1c-0.3-0.1-0.6-0.2-0.9-0.3c-0.3-0.1-0.5-0.3-0.7-0.5
		s-0.4-0.4-0.6-0.7l-0.1,0.7c-0.1,0.3-0.2,0.5-0.3,0.6s-0.4,0.2-0.6,0.2H94.5z M101.1,23.6c-0.3,0-0.6,0-0.8,0.1
		c-0.2,0.1-0.5,0.1-0.7,0.2c-0.2,0.1-0.4,0.2-0.6,0.4c-0.2,0.2-0.3,0.3-0.5,0.6v5.7c0.3,0.3,0.6,0.6,1,0.7c0.4,0.1,0.7,0.2,1.1,0.2
		c0.4,0,0.7-0.1,1-0.2c0.3-0.1,0.6-0.4,0.8-0.7c0.2-0.3,0.4-0.8,0.5-1.3s0.2-1.2,0.2-1.9c0-0.7-0.1-1.3-0.2-1.8
		c-0.1-0.5-0.3-0.9-0.4-1.2c-0.2-0.3-0.4-0.5-0.7-0.6C101.7,23.7,101.4,23.6,101.1,23.6z"/>
	<path class="st0" d="M114.9,20.6c0.9,0,1.7,0.1,2.5,0.4c0.7,0.3,1.4,0.7,1.9,1.2c0.5,0.5,1,1.2,1.3,2c0.3,0.8,0.5,1.6,0.5,2.6
		c0,0.3,0,0.6,0,0.7c0,0.2-0.1,0.3-0.1,0.5c-0.1,0.1-0.2,0.2-0.3,0.2c-0.1,0-0.3,0.1-0.5,0.1h-7.8c0.1,1.1,0.5,2,1,2.5
		c0.6,0.5,1.3,0.8,2.2,0.8c0.5,0,0.9-0.1,1.2-0.2c0.3-0.1,0.6-0.2,0.9-0.4c0.3-0.1,0.5-0.3,0.7-0.4c0.2-0.1,0.5-0.2,0.7-0.2
		c0.3,0,0.6,0.1,0.7,0.4l1.2,1.4c-0.4,0.5-0.9,0.9-1.4,1.2c-0.5,0.3-1,0.5-1.5,0.7c-0.5,0.2-1,0.3-1.5,0.4c-0.5,0.1-1,0.1-1.5,0.1
		c-0.9,0-1.8-0.2-2.7-0.5c-0.8-0.3-1.6-0.8-2.2-1.4c-0.6-0.6-1.1-1.4-1.5-2.3c-0.4-0.9-0.5-2-0.5-3.2c0-0.9,0.2-1.8,0.5-2.6
		c0.3-0.8,0.8-1.5,1.3-2.1c0.6-0.6,1.3-1.1,2.1-1.4C113,20.8,113.9,20.6,114.9,20.6z M115,23.4c-0.8,0-1.4,0.2-1.8,0.7
		c-0.4,0.4-0.7,1.1-0.9,1.9h5.1c0-0.3,0-0.6-0.1-0.9c-0.1-0.3-0.2-0.6-0.4-0.8c-0.2-0.2-0.4-0.4-0.7-0.6
		C115.8,23.4,115.4,23.4,115,23.4z"/>
	<path class="st0" d="M128.6,20.6c0.9,0,1.7,0.1,2.5,0.4c0.7,0.3,1.4,0.7,1.9,1.2c0.5,0.5,1,1.2,1.3,2c0.3,0.8,0.5,1.6,0.5,2.6
		c0,0.3,0,0.6,0,0.7c0,0.2-0.1,0.3-0.1,0.5c-0.1,0.1-0.2,0.2-0.3,0.2c-0.1,0-0.3,0.1-0.5,0.1H126c0.1,1.1,0.5,2,1,2.5
		c0.6,0.5,1.3,0.8,2.2,0.8c0.5,0,0.9-0.1,1.2-0.2c0.3-0.1,0.6-0.2,0.9-0.4c0.3-0.1,0.5-0.3,0.7-0.4c0.2-0.1,0.5-0.2,0.7-0.2
		c0.3,0,0.6,0.1,0.7,0.4l1.2,1.4c-0.4,0.5-0.9,0.9-1.4,1.2c-0.5,0.3-1,0.5-1.5,0.7c-0.5,0.2-1,0.3-1.5,0.4c-0.5,0.1-1,0.1-1.5,0.1
		c-0.9,0-1.8-0.2-2.7-0.5c-0.8-0.3-1.6-0.8-2.2-1.4c-0.6-0.6-1.1-1.4-1.5-2.3c-0.4-0.9-0.5-2-0.5-3.2c0-0.9,0.2-1.8,0.5-2.6
		c0.3-0.8,0.8-1.5,1.3-2.1c0.6-0.6,1.3-1.1,2.1-1.4C126.6,20.8,127.6,20.6,128.6,20.6z M128.7,23.4c-0.8,0-1.4,0.2-1.8,0.7
		c-0.4,0.4-0.7,1.1-0.9,1.9h5.1c0-0.3,0-0.6-0.1-0.9c-0.1-0.3-0.2-0.6-0.4-0.8c-0.2-0.2-0.4-0.4-0.7-0.6
		C129.5,23.4,129.1,23.4,128.7,23.4z"/>
</g>
<path class="st1" d="M32.2,25.1C31.9,44.3,3.3,44.3,3,25.1C3.3,5.9,31.9,5.9,32.2,25.1z"/>
<g>
	<path class="st2" d="M29,24.6c-0.2,9.1-13.7,9.1-13.8,0C15.3,15.5,28.8,15.5,29,24.6z"/>
	<g class="st3">
		<g>
			<path d="M22.9,18.2c0,0-0.6,11,4.5,11.6c0,0-3.2,2.7-5.7,1.9l0.2-14L22.9,18.2z"/>
		</g>
	</g>
	<path class="st0" d="M22,32.4c-10.2-0.2-10.2-15.4,0-15.5C32.3,17,32.3,32.2,22,32.4z M22,18.5c-8,0.1-8,12,0,12.1
		C30,30.5,30,18.7,22,18.5z"/>
	<polygon class="st0" points="22.9,34.7 23,42.4 17.6,37.5 	"/>
	<path class="st1" d="M22,38.1C4.6,39.2,4.6,13.3,22,14.5V38.1z"/>
	<path class="st3" d="M11.4,20.1c0,0,3.9,3.9,9.9,1.6l0.1-2.5l-5.3,1.5l-3.9-0.8L11.4,20.1z"/>
	<path class="st0" d="M22.9,38.9C3.2,40.5,3.2,12,22.9,13.6V38.9z M20.6,15.3C5.8,15.6,6.4,37.6,21.2,37.2V15.3H20.6z"/>
	<path class="st1" d="M23.1,13.6c-0.2,9.3-14,9.3-14.1,0C9.1,4.3,22.9,4.3,23.1,13.6z"/>
	<path class="st0" d="M16,21.5C5.6,21.3,5.6,5.9,16,5.7C26.4,5.9,26.4,21.3,16,21.5z M16,7.4c-8.2,0.1-8.2,12.3,0,12.4
		C24.2,19.7,24.2,7.5,16,7.4z"/>
	<path class="st4" d="M23.1,33.7"/>
	<path class="st5" d="M11.8,14H7.4c-0.5,0-1-0.4-1-1c0.2-0.9-0.6-3.5,1-3.5c0,0,4.3,0,4.3,0c0.5,0,1,0.4,1,1
		C12.6,11.4,13.3,14.1,11.8,14z"/>
	<g>
		<path class="st5" d="M21.4,14h-4.3c-0.5,0-1-0.4-1-1c0.2-0.9-0.6-3.5,1-3.5l4.3,0c0.5,0,1,0.4,1,1C22.2,11.4,22.9,14.1,21.4,14z"
			/>
	</g>
	<path class="st5" d="M12.7,11.5c0,0,1.6-1.5,3.4,0"/>
	<path class="st0" d="M16,12.1c-1.2-1-2.3-0.1-2.4,0l-1-1.1c0.7-0.7,2.6-1.5,4.3,0L16,12.1z"/>
	<path class="st0" d="M15.9,18.1c-0.4,0-0.8-0.1-1.3-0.2l0.4-1.4c1.9,0.6,2.7-1,2.8-1.2l1.3,0.6C18.8,16.8,17.7,18.1,15.9,18.1z"/>
	<path class="st0" d="M20,10.8c-0.2,0.5-1,0.4-1-0.2c0-0.3,0.2-0.5,0.5-0.5c-0.7-0.4-1.9-0.1-1.9,1c0,1.6,2.5,1.6,2.5,0
		C20,11,20,10.9,20,10.8z"/>
	<path class="st0" d="M11.4,10.7c-0.1,0.6-1,0.6-1-0.1c0-0.3,0.3-0.5,0.5-0.5c-0.7-0.4-1.9-0.1-1.9,1c0,1.6,2.5,1.6,2.5,0
		C11.4,11,11.4,10.8,11.4,10.7z"/>
	<path class="st0" d="M16.5,26.1c-4.8,0-7.6-3.5-7.6-3.5l1.3-1L9.5,22l0.7-0.5c0.2,0.2,4.3,5.3,11.4,1.4l0.8,1.5
		C20.2,25.7,18.2,26.1,16.5,26.1z"/>
	<path class="st0" d="M17,30.5c-4.8,0-8.6-3.5-8.6-3.6l1.2-1.2c0.2,0.2,6.1,5.7,12,1.7l1,1.4C20.7,30,18.8,30.5,17,30.5z"/>
	<path class="st0" d="M17.9,36.9c0,0,3.2,0.9,3.3-3l1,5.9L17.9,36.9z"/>
	<path class="st0" d="M17.5,34.6c-4.5,0-8.2-3-8.4-3.2l1.1-1.3l-0.5,0.7l0.5-0.7c0.1,0,5.9,4.8,11.4,1.7l0.8,1.5
		C20.8,34.2,19.1,34.6,17.5,34.6z"/>
	<path class="st6" d="M21.7,8.7H10.4c-1.3,0-1-1.6-1-2.5c0-0.6,0.5-1,1-1h11.3c0.6,0,1,0.5,1,1C22.7,7,23,8.7,21.7,8.7z"/>
	<rect x="9.3" y="7.1" class="st3" width="13.5" height="1.8"/>
	<path class="st0" d="M21.7,9.3H10.4c-1.7,0-1.7-1.9-1.6-3.1c0-0.9,0.7-1.6,1.6-1.6h11.3c0.9,0,1.6,0.7,1.6,1.6
		C23.4,7.4,23.3,9.3,21.7,9.3z M10.4,5.8c-0.7,0-0.5,1.7-0.4,1.9c0,0.2,0.2,0.4,0.4,0.4h11.3c0.7,0,0.5-1.7,0.4-1.9
		C22,6,21.9,5.8,21.7,5.8H10.4z"/>
	<line class="st5" x1="11.5" y1="5.2" x2="11.5" y2="8.5"/>
	<rect x="10.9" y="5.2" class="st0" width="1.2" height="3.3"/>
	<line class="st5" x1="13.8" y1="5.2" x2="13.8" y2="8.6"/>
	<rect x="13.2" y="5.2" class="st0" width="1.2" height="3.3"/>
	<line class="st5" x1="16.1" y1="5.2" x2="16.1" y2="8.6"/>
	<rect x="15.5" y="5.2" class="st0" width="1.2" height="3.3"/>
	<line class="st5" x1="18.4" y1="5.3" x2="18.4" y2="8.7"/>
	<rect x="17.8" y="5.3" class="st0" width="1.2" height="3.3"/>
	<line class="st5" x1="20.7" y1="5.3" x2="20.7" y2="8.7"/>
	<rect x="20.1" y="5.3" class="st0" width="1.2" height="3.3"/>
	<path class="st6" d="M10.5,5c0-0.4,4.8-9.6,10.9,0H10.5z"/>
	<polygon class="st3" points="21.7,5.4 10.4,5.4 11.2,3.6 20.7,3.6 	"/>
	<path class="st0" d="M22.5,5.6H9.9c-0.1-1.3,1.6-4.3,4.7-5.4C17.3-0.8,20.5,2,22.5,5.6z M11.1,5.2C11.1,5.2,11.1,5.2,11.1,5.2
		L11.1,5.2z M11.5,4.4h8.8C17.3-0.2,13.6,0.8,11.5,4.4z"/>
	<g>
		<path class="st0" d="M12.3,13.5v-0.8H7.7c-0.2,0-0.3-0.2-0.3-0.3v-2.4c0-0.2,0.2-0.3,0.3-0.3h4.5c0.2,0,0.3,0.2,0.3,0.3v2.4
			c0,0.2-0.2,0.3-0.3,0.3V13.5v0.7c1,0,1.8-0.8,1.8-1.8v-2.4c0-1-0.8-1.8-1.8-1.8H7.7c-1,0-1.8,0.8-1.8,1.8v2.4c0,1,0.8,1.8,1.8,1.8
			h4.5V13.5z"/>
	</g>
	<g>
		<path class="st0" d="M21.8,13.5v-0.8h-4.5c-0.2,0-0.3-0.2-0.3-0.3v-2.4c0-0.2,0.2-0.3,0.3-0.3h4.5c0.2,0,0.3,0.2,0.3,0.3v2.4
			c0,0.2-0.2,0.3-0.3,0.3V13.5v0.7c1,0,1.8-0.8,1.8-1.8v-2.4c0-1-0.8-1.8-1.8-1.8h-4.5c-1,0-1.8,0.8-1.8,1.8v2.4
			c0,1,0.8,1.8,1.8,1.8h4.5V13.5z"/>
	</g>
</g>
</svg>
