<?xml version="1.0" encoding="utf-8"?>
<!-- Generator: Adobe Illustrator 25.4.1, SVG Export Plug-In . SVG Version: 6.00 Build 0)  -->
<svg version="1.1" id="Warstwa_1" xmlns="http://www.w3.org/2000/svg" xmlns:xlink="http://www.w3.org/1999/xlink" x="0px" y="0px"
	 viewBox="0 0 478 230.1" style="enable-background:new 0 0 478 230.1;" xml:space="preserve">
<style type="text/css">
	.st0{fill:#FFD200;}
</style>
<g>
	<g>
		<path class="st0" d="M261.4,0c-38.6,2.5-76.4,14.9-109.1,35.6c-31.9,20.3-62.2,49.2-74.3,85.9c-6,18-6.3,37.6,1.4,55.2
			c7.3,16.6,21.4,29.6,37.2,38c18.8,10,40.2,13.7,61.3,14.8c22,1.2,44.3,0.4,66.3-1.6c44-4.1,87.8-13.6,129.1-29.3
			c19.6-7.5,38.7-16.5,56.5-27.7c8.6-5.4,17-11.3,24.8-17.9c7.2-6.1,13.8-13.3,18.3-21.6c4.6-8.5,6.5-18.1,4.6-27.7
			c-1.8-8.7-7.1-16.4-13.5-22.3c-14.5-13.3-34.5-19.1-53.6-21.8c-21.8-3.1-43.8-2.6-65.7-1.6c-21.4,0.9-42.7,2.6-64,5.2
			c-43,5.1-85.5,13.4-127.3,24.9c-41.7,11.5-82.5,26.2-122,43.8c-9.6,4.3-19.2,8.8-28.7,13.4c-2.4,1.2-3.1,4.6-1.8,6.8
			c1.4,2.5,4.4,3,6.8,1.8c37.3-18.3,75.9-33.8,115.5-46.5c39.7-12.7,80.3-22.4,121.5-29.2c40.9-6.7,82.5-10.5,124-10.9
			c20.7-0.2,41.7,0.7,61.6,6.9c14.6,4.5,31.8,13.4,36.8,29c5.5,17.2-7.5,32.6-19.7,43c-14.9,12.6-32.3,22.7-49.8,31.3
			c-37.3,18.2-78.3,29.4-119.1,36.2c-21.3,3.5-42.9,5.6-64.5,6.3c-20.8,0.7-42.1,0.7-62.6-3.5c-17.7-3.7-34.9-10.8-48.1-23.4
			c-12.2-11.7-19.5-27.1-19.6-44.1c-0.1-17.6,6.9-34.6,16.2-49.3c9.8-15.4,22.8-28.6,36.9-40.2c28.4-23.2,62.8-39,98.7-45.9
			c8.7-1.7,17.4-2.8,26.2-3.3c2.7-0.2,5-2.2,5-5C266.4,2.4,264.1-0.2,261.4,0L261.4,0z"/>
	</g>
</g>
</svg>
