<?xml version="1.0" encoding="utf-8"?>
<!-- Generator: Adobe Illustrator 25.4.1, SVG Export Plug-In . SVG Version: 6.00 Build 0)  -->
<svg version="1.1" id="Warstwa_1" xmlns="http://www.w3.org/2000/svg" xmlns:xlink="http://www.w3.org/1999/xlink" x="0px" y="0px"
	 viewBox="0 0 503.4 211.4" style="enable-background:new 0 0 503.4 211.4;" xml:space="preserve">
<style type="text/css">
	.st0{fill:#FFD200;}
</style>
<g>
	<g>
		<path class="st0" d="M461.9,50.5c-19.6-12.3-41.7-21.9-65.3-28.7C372.7,15,347.9,11,322.7,9.2c-25.6-2-51.6-1.9-77.3-0.4
			c-26.4,1.6-52.5,4.7-78.4,8.7c-29.8,4.7-59.7,10.7-87.5,20.6c-14,5-27.4,10.7-39.8,17.7C27.5,62.6,15.1,70.4,6.9,80.4
			c-7.6,9.2-8.7,20.4-4.5,30.7c4.1,10.1,12.5,19,22,26.3c9.7,7.5,21.1,13.7,32.7,19.2c11.4,5.5,23.4,10.3,35.7,14.4
			c25.1,8.3,51.7,13.9,78.7,17.1c28.2,3.3,56.7,4.3,85.2,3.5c32.4-0.9,64.8-4.4,96.4-10c31.1-5.5,61.7-13.2,90.9-23.2
			c14.5-5,28.6-10.9,39.8-19.6c9.5-7.3,16.5-17.3,18.3-27.6c2-12-3.5-23.2-13.4-32.3c-9.5-8.6-21.1-15.6-33.3-21.5
			c-23-11.1-49.6-17.8-76.3-21.5c-28.8-3.9-58.4-4.8-87.6-3.1c-30.5,1.8-60.7,6.5-89.6,13.8s-57,17.4-83,30
			c-23.9,11.6-50.1,25.5-54.5,49c-1.9,10.4,0,21.2,4.6,31.2c5.2,11.1,14,20.7,23.8,29.4s21.1,16.3,32.4,23.9c2.7,1.7,6.8,1.6,9-0.4
			c2.2-2.1,2-5.3-0.5-7c-11.3-7.6-22.5-15.2-32.4-23.9c-4.7-4.1-9.1-8.8-12.9-13.6c-3.5-4.4-5.6-7.7-7.8-12.7
			c-2.2-4.8-3.3-8.6-3.8-13.4c-0.4-2.3-0.4-4.8-0.3-7.2c0-0.4,0-1.5,0-1.5c-0.1,0.4,0.1-0.4,0.1-0.4c0-0.2,0-0.5,0.1-0.8
			c0.1-1.2,0.5-2.4,0.8-3.7c1.3-4.7,2.9-8.5,6.4-12.8c3.2-4,8.2-8.1,12.9-11.5c4.4-3,10.4-6.4,15.6-9.2c6-3.3,12.2-6.3,18.4-9.2
			c12.4-5.7,25-10.9,37.9-15.4c26.5-9.2,54.7-16.1,82.8-20.2c28.8-4.2,58.3-5.7,87.3-4.6c13.1,0.5,26.2,1.7,39.2,3.5
			c6.5,1,12.9,2,19.1,3.4c6,1.3,12.9,2.9,18.2,4.3c12.2,3.4,23.9,7.7,34.8,13.1c5.1,2.5,9.9,5.2,14.9,8.4
			c5.1,3.3,10.4,6.9,14.5,10.9c4.6,4.5,7.9,9,9.7,14.6c0.3,0.9,0.1-0.1,0.3,0.8c0.1,0.5,0.1,1,0.3,1.6c0.1,1.3,0.3,2.7,0.3,4
			c0,1.4,0,1.2-0.3,2.6c-0.1,1.2-0.5,2.5-0.9,3.6c-1.3,4.1-3.8,8.5-7.2,12.5c0.4-0.4-0.5,0.6-0.6,0.7c-0.4,0.5-0.9,1-1.5,1.5
			c-0.9,1-2,1.9-3.1,2.9c-2.3,2-4.6,3.6-7,5.2c-11.4,7.2-24.6,11.7-37.9,16.1c-14.5,4.6-29.2,8.7-44.2,12.4
			c-29.5,7.1-59.9,12.1-90.5,14.9c-29.1,2.7-58.4,3.5-87.7,2c-12.4-0.6-25.7-1.8-38.5-3.4c-12.8-1.6-25.6-3.9-38.3-6.6
			c-12.5-2.8-23.8-5.8-35.7-9.9c-12-4.1-23.6-8.7-34.7-14.2c-10.2-5-20.9-10.9-29.7-18C23.9,123,16.8,115,14,106.1
			c-0.1-0.3-0.5-1.5-0.4-1.4c0.1,0.3-0.3-1.1-0.3-1.3c-0.3-1.2-0.4-2.3-0.4-3.5c-0.1-0.5,0-1,0-1.5c0-0.2,0-0.5,0.1-0.8
			c0-0.9-0.1,0.7,0-0.2c0.1-1.2,0.5-2.3,0.8-3.6c1.3-4.5,4.5-8.5,8.5-12.3c9-8.3,20.5-15,32.1-21C78.5,48,105.9,39.9,133.9,34
			c26.1-5.5,52.4-9.4,79.1-12.2c24.7-2.6,49.6-4,74.5-3.8c24.2,0.1,47.5,1.9,71.6,6.1c5.9,1,11.5,2.2,17.4,3.5s11.3,2.8,16.4,4.2
			c11.1,3.2,21.9,7.2,32.4,11.6c10.5,4.6,18.8,9,28,14.9c2.7,1.7,6.7,1.6,9-0.4C464.7,55.6,464.7,52.2,461.9,50.5L461.9,50.5z"/>
	</g>
</g>
</svg>
