<?xml version="1.0" encoding="utf-8"?>
<!-- Generator: Adobe Illustrator 25.4.1, SVG Export Plug-In . SVG Version: 6.00 Build 0)  -->
<svg version="1.1" id="Warstwa_1" xmlns="http://www.w3.org/2000/svg" xmlns:xlink="http://www.w3.org/1999/xlink" x="0px" y="0px"
	 viewBox="0 0 789.9 223.8" style="enable-background:new 0 0 789.9 223.8;" xml:space="preserve">
<style type="text/css">
	.st0{fill:#FFD200;}
</style>
<g>
	<g>
		<path class="st0" d="M526.7,53.4c-69.2-5.7-139.5-6.8-206.9,1.7c-33,4.1-65.8,10.4-96.1,19.8c-28.1,8.8-55,21.7-67.3,42.3
			c-5.8,9.6-8,20.8-5.4,31.6c2.9,11.6,11.9,21.7,24,30c24.6,16.9,57.1,27.4,89.1,33.8c32.8,6.6,66.4,9.2,99.7,10.4
			c35.6,1.3,71.3,1,106.4-1.1c69.7-4,138.3-14.4,202.6-31.5c29.1-7.8,57.9-17.5,80.7-32.3c11.6-7.5,22.7-16.3,28-27
			c5.1-10.4,3.2-21.9-5.2-31.9c-7.9-9.3-19.3-16.7-31.8-22.9C729.9,69,713.7,63,697.4,57.8C663.8,47,628.4,39.9,593,33.7
			C524.4,21.7,454.6,15,385.3,14.4c-69.3-0.6-138,5-203.6,17.6C119.8,44.2,53.4,62.2,18.4,101.7c-8,9.1-14.2,19.1-17.7,29.7
			c-0.9,2.6,0.4,5.5,4.3,6.7c3.2,0.9,8.3,0.1,9.2-2.5c14.2-44.2,71-69.2,127.6-83.7c60.9-15.6,126-24.1,191.9-26.6
			c66.1-2.5,133.1,1,199.4,9.5c33.3,4.3,66.5,9.7,99.1,16.6c33.4,7.1,67,16,97,29.3c22.1,9.8,48.6,26.4,39.4,45.9
			c-4.7,10-15.4,18.1-26.4,24.8s-23.2,12.5-36,17.4c-27.7,10.3-57.9,17.5-88.1,23.7c-31.9,6.6-64.4,11.6-97.6,15.1
			c-65.2,6.9-133.4,8.7-200.3,2.8c-31.5-2.7-63.1-7.8-92.3-18c-14.3-4.9-28-11-40-18.5c-11.3-7.1-20.1-15.9-22.6-26.3
			c-5.1-20.9,11.5-39.3,33.3-50.8c24-12.6,54.4-19.7,83.6-25.4c62.3-12.2,129.1-14.3,195-11.3c16.2,0.7,32.4,1.8,48.6,3.2
			C534.7,64.1,535.8,54.1,526.7,53.4L526.7,53.4z"/>
	</g>
</g>
</svg>
